/* XPM */
static char *down[] = {
/* width height num_colors chars_per_pixel */
"    16    16       73            2",
/* colors */
".. c none",
".# c #6e9db3",
".a c #6b99ae",
".b c #6793a7",
".c c #6692a7",
".d c #6692a6",
".e c #60899c",
".f c #466573",
".g c #527586",
".h c #5c8496",
".i c #648ea2",
".j c #648fa3",
".k c #638ea2",
".l c #618a9d",
".m c #577d8e",
".n c #3c5562",
".o c #1c292e",
".p c #4a6978",
".q c #557a8b",
".r c #5d8497",
".s c #5e8698",
".t c #5d8598",
".u c #5a8093",
".v c #507282",
".w c #3a525e",
".x c #1a252b",
".y c #456270",
".z c #496876",
".A c #507383",
".B c #547888",
".C c #567a8b",
".D c #567b8d",
".E c #527686",
".F c #496877",
".G c #374f5a",
".H c #1f2c32",
".I c #0e1417",
".J c #486776",
".K c #4f7181",
".L c #517484",
".M c #4a6a79",
".N c #3f5a67",
".O c #2d414a",
".P c #162024",
".Q c #537687",
".R c #4e6f7e",
".S c #486775",
".T c #3e5965",
".U c #2f444d",
".V c #1b272d",
".W c #4b6c7b",
".X c #4e7080",
".Y c #425e6b",
".Z c #334954",
".0 c #1f2d33",
".1 c #11191c",
".2 c #466472",
".3 c #4d6e7d",
".4 c #476674",
".5 c #2b3d46",
".6 c #141d21",
".7 c #415d6a",
".8 c #334852",
".9 c #1e2a31",
"#. c #425f6c",
"## c #4c6c7c",
"#a c #314650",
"#b c #415c69",
"#c c #3a535f",
"#d c #202e35",
"#e c #0d1215",
"#f c #1e2b31",
"#g c #0a0f11",
/* pixels */
".#.a.b.c.c.c.c.c.c.c.c.c.c.d.e.f",
".g.h.i.j.k.k.k.k.k.k.k.k.l.m.n.o",
"...p.q.r.s.s.s.s.s.s.t.u.v.w.x..",
"...y.z.A.B.C.D.D.D.C.E.F.G.H.I..",
".....J.K.L.L.L.L.L.v.M.N.O.P....",
".....B.D.C.Q.A.K.K.R.S.T.U.V....",
".....M.W.v.A.K.K.X.M.Y.Z.0.1....",
".......2.3.v.v.K.R.4.n.5.6......",
".......y.J.R.K.X.M.7.8.9.I......",
".........2.3.v.X.S.n.5.6........",
".........y.J.R.3#..8.9.I........",
"...........2.3##.T.5.6..........",
"...........y.J.z.G.9.I..........",
".............2.S#a.6............",
"............#b#c#d#e............",
"..............#f#g.............."
};
