/* XPM */
static char *up[] = {
/* width height num_colors chars_per_pixel */
"    16    16       79            2",
/* colors */
".. c none",
".# c #6e9db3",
".a c #5a8093",
".b c #6b99ae",
".c c #6b99af",
".d c #527485",
".e c #374f5a",
".f c #6996ab",
".g c #648fa3",
".h c #4e6f7e",
".i c #6995aa",
".j c #628b9f",
".k c #4f7181",
".l c #3e5965",
".m c #324852",
".n c #6590a5",
".o c #5d8497",
".p c #43606d",
".q c #628ca0",
".r c #507282",
".s c #476574",
".t c #5e8698",
".u c #567b8c",
".v c #4a6978",
".w c #5a8193",
".x c #547888",
".y c #4c6d7c",
".z c #517383",
".A c #6691a5",
".B c #6793a7",
".C c #537788",
".D c #4e7080",
".E c #4b6c7b",
".F c #456371",
".G c #3b5460",
".H c #2d4049",
".I c #60899d",
".J c #5f889b",
".K c #5b8294",
".L c #557a8b",
".M c #4e6f7f",
".N c #4a6a79",
".O c #43606e",
".P c #38505c",
".Q c #273840",
".R c #6895aa",
".S c #648ea2",
".T c #5c8395",
".U c #4d6e7e",
".V c #4d6e7d",
".W c #496877",
".X c #425e6c",
".Y c #364d58",
".Z c #60899c",
".0 c #547889",
".1 c #4b6b7a",
".2 c #476674",
".3 c #466573",
".4 c #486775",
".5 c #6894a9",
".6 c #5d8598",
".7 c #4c6c7c",
".8 c #405b68",
".9 c #3b5561",
"#. c #3d5763",
"## c #3f5a67",
"#a c #425e6b",
"#b c #39515d",
"#c c #587e90",
"#d c #314650",
"#e c #2b3e47",
"#f c #334852",
"#g c #38505b",
"#h c #2c3f48",
"#i c #1f2d33",
"#j c #141d21",
"#k c #131b1f",
"#l c #131c20",
"#m c #11181c",
/* pixels */
"...............#.a..............",
".............b.c.d.e............",
".............f.g.h.e............",
"...........i.i.j.k.l.m..........",
"...........f.n.o.k.p.e..........",
".........i.i.q.a.r.s.l.m........",
".........f.n.t.u.k.v.p.e........",
".......i.i.q.w.x.r.y.s.l.m......",
".......f.n.t.u.z.k.h.v.p.e......",
".....A.B.j.a.C.r.k.D.E.F.G.H....",
".....I.J.K.L.z.k.k.M.N.O.P.Q....",
".....R.S.T.x.D.U.U.U.V.W.X.Y....",
"...i.R.Z.0.1.2.3.3.s.4.v.s.l.m..",
"...5.6.7.8.9.9.9.9.9.9#.###a#b..",
".q#c###d#e#e#e#e#e#e#e#e.H#f#g#h",
".P#i#j#k#k#k#k#k#k#k#k#k#k#l#j#m"
};
